# xmcd
#
# Track frame offsets: 
#        150
#        14050
#        27947
#        43505
#        66662
#        83272
#        105210
#        122930
#        138022
#        154252
#        171362
#
# Disc length: 2473 seconds
#
# Revision: 5
# Processed by: cddbd v1.5.2PL0 Copyright (c) Steve Scherf et al.
# Submitted via: ExactAudioCopy v0.95a5
#
DISCID=8a09a70b
DTITLE=Dan Seals - The Best
DYEAR=1987
DGENRE=Country
TTITLE0=Three Time Loser
TTITLE1=God Must Be A Cowboy
TTITLE2=My Baby's Got Good Timing
TTITLE3=You Still Move Me
TTITLE4=Bop
TTITLE5=Everything That Glitters (Is Not Gold)
TTITLE6=Meet Me In Montana (duet with Marie Osmond)
TTITLE7=(You Bring Out) The Wild Side Of Me
TTITLE8=My Old Yellow Car
TTITLE9=I Will Be There
TTITLE10=One Friend
EXTD=YEAR: 1987
EXTT0=
EXTT1=
EXTT2=
EXTT3=
EXTT4=
EXTT5=
EXTT6=
EXTT7=
EXTT8=
EXTT9=
EXTT10=
PLAYORDER=
